<svg xmlns="http://www.w3.org/2000/svg" width="128" height="128" viewBox="0 0 128 128" role="img" aria-label="mcp2mcpb logo">
  <defs>
    <linearGradient id="bg" x1="0" y1="0" x2="1" y2="1">
      <stop offset="0" stop-color="#0F172A"/>
      <stop offset="1" stop-color="#1E293B"/>
    </linearGradient>
    <linearGradient id="face-top" x1="0" y1="0" x2="0" y2="1">
      <stop offset="0" stop-color="#5EEAD4"/>
      <stop offset="1" stop-color="#2DD4BF"/>
    </linearGradient>
    <linearGradient id="face-left" x1="0" y1="0" x2="0" y2="1">
      <stop offset="0" stop-color="#14B8A6"/>
      <stop offset="1" stop-color="#0EA5A4"/>
    </linearGradient>
    <linearGradient id="face-right" x1="0" y1="0" x2="0" y2="1">
      <stop offset="0" stop-color="#0F766E"/>
      <stop offset="1" stop-color="#0B5E57"/>
    </linearGradient>
    <radialGradient id="glow" cx="0.5" cy="0.4" r="0.55">
      <stop offset="0" stop-color="#14B8A6" stop-opacity="0.28"/>
      <stop offset="1" stop-color="#14B8A6" stop-opacity="0"/>
    </radialGradient>
  </defs>
  <rect width="128" height="128" rx="28" fill="url(#bg)"/>
  <rect x="1.5" y="1.5" width="125" height="125" rx="26.5" fill="none" stroke="#334155" stroke-width="1.5"/>
  <circle cx="64" cy="60" r="48" fill="url(#glow)"/>
  <!-- isometric .mcpb bundle -->
  <path d="M64 26 L98 46 L64 66 L30 46 Z" fill="url(#face-top)"/>
  <path d="M30 46 L64 66 L64 104 L30 84 Z" fill="url(#face-left)"/>
  <path d="M98 46 L64 66 L64 104 L98 84 Z" fill="url(#face-right)"/>
  <!-- edge highlights for depth -->
  <path d="M64 26 L98 46 L64 66 L30 46 Z" fill="none" stroke="#99F6E4" stroke-width="1.2" stroke-opacity="0.55"/>
  <line x1="64" y1="66" x2="64" y2="104" stroke="#5EEAD4" stroke-width="1.4" stroke-opacity="0.55"/>
  <!-- transform / target spark -->
  <path d="M64 11 l2.6 6.2 6.2 2.6 -6.2 2.6 -2.6 6.2 -2.6 -6.2 -6.2 -2.6 6.2 -2.6 z" fill="#38BDF8"/>
</svg>
