<svg xmlns="http://www.w3.org/2000/svg" width="1280" height="640" viewBox="0 0 1280 640" role="img" aria-label="mcp2mcpb social preview">
  <defs>
    <linearGradient id="bg" x1="0" y1="0" x2="1" y2="1">
      <stop offset="0" stop-color="#0F172A"/>
      <stop offset="1" stop-color="#1E293B"/>
    </linearGradient>
    <linearGradient id="bar" x1="0" y1="0" x2="1" y2="0">
      <stop offset="0" stop-color="#0F766E"/>
      <stop offset="1" stop-color="#38BDF8"/>
    </linearGradient>
    <linearGradient id="face-top" x1="0" y1="0" x2="0" y2="1">
      <stop offset="0" stop-color="#5EEAD4"/>
      <stop offset="1" stop-color="#2DD4BF"/>
    </linearGradient>
    <linearGradient id="face-left" x1="0" y1="0" x2="0" y2="1">
      <stop offset="0" stop-color="#14B8A6"/>
      <stop offset="1" stop-color="#0EA5A4"/>
    </linearGradient>
    <linearGradient id="face-right" x1="0" y1="0" x2="0" y2="1">
      <stop offset="0" stop-color="#0F766E"/>
      <stop offset="1" stop-color="#0B5E57"/>
    </linearGradient>
    <radialGradient id="glow" cx="0.5" cy="0.5" r="0.5">
      <stop offset="0" stop-color="#14B8A6" stop-opacity="0.22"/>
      <stop offset="1" stop-color="#14B8A6" stop-opacity="0"/>
    </radialGradient>
    <linearGradient id="word" x1="0" y1="0" x2="1" y2="0">
      <stop offset="0" stop-color="#5EEAD4"/>
      <stop offset="1" stop-color="#38BDF8"/>
    </linearGradient>
    <linearGradient id="bundle" x1="0" y1="0" x2="0" y2="1">
      <stop offset="0" stop-color="#2DD4BF"/>
      <stop offset="1" stop-color="#14B8A6"/>
    </linearGradient>
  </defs>
  <rect width="1280" height="640" fill="url(#bg)"/>
  <rect width="1280" height="8" fill="url(#bar)"/>
  <circle cx="640" cy="200" r="150" fill="url(#glow)"/>
  <!-- emblem -->
  <g transform="translate(531,90) scale(1.7)">
    <path d="M64 26 L98 46 L64 66 L30 46 Z" fill="url(#face-top)"/>
    <path d="M30 46 L64 66 L64 104 L30 84 Z" fill="url(#face-left)"/>
    <path d="M98 46 L64 66 L64 104 L98 84 Z" fill="url(#face-right)"/>
    <path d="M64 26 L98 46 L64 66 L30 46 Z" fill="none" stroke="#99F6E4" stroke-width="1.2" stroke-opacity="0.55"/>
    <line x1="64" y1="66" x2="64" y2="104" stroke="#5EEAD4" stroke-width="1.4" stroke-opacity="0.55"/>
    <path d="M64 11 l2.6 6.2 6.2 2.6 -6.2 2.6 -2.6 6.2 -2.6 -6.2 -6.2 -2.6 6.2 -2.6 z" fill="#38BDF8"/>
  </g>
  <!-- wordmark + tagline -->
  <text x="640" y="386" text-anchor="middle" font-family="ui-monospace,SFMono-Regular,Menlo,monospace" font-size="104" font-weight="600" fill="#F1F5F9">mcp2mcpb</text>
  <text x="609" y="386" text-anchor="middle" font-family="ui-monospace,SFMono-Regular,Menlo,monospace" font-size="104" font-weight="600" fill="#38BDF8">2</text>
  <text x="640" y="444" text-anchor="middle" font-family="Lucida Grande,Helvetica Neue,Helvetica,Geneva,Arial,sans-serif" font-size="32" fill="#94A3B8">PyPI / npm MCP servers → one-click .mcpb bundles for Claude Desktop</text>
  <!-- refined conversion flow, centered -->
  <g transform="translate(388,486)" font-family="Helvetica Neue,Helvetica,Geneva,Arial,sans-serif" font-size="24">
    <rect x="0" y="0" width="190" height="50" rx="12" fill="#1E293B" stroke="#334155" stroke-width="1.5"/>
    <text x="24" y="33" fill="#CBD5E1">PyPI · npm</text>
    <line x1="206" y1="25" x2="262" y2="25" stroke="#38BDF8" stroke-width="4" stroke-opacity="0.85"/>
    <path d="M262 25 l-12 -7 0 14 z" fill="#38BDF8"/>
    <rect x="280" y="0" width="150" height="50" rx="12" fill="url(#bundle)"/>
    <text x="355" y="34" text-anchor="middle" fill="#0F172A" font-family="ui-monospace,Menlo,monospace" font-weight="600">.mcpb</text>
    <line x1="446" y1="25" x2="502" y2="25" stroke="#38BDF8" stroke-width="4" stroke-opacity="0.85"/>
    <path d="M502 25 l-12 -7 0 14 z" fill="#38BDF8"/>
    <path d="M520 25 l4 9 9 4 -9 4 -4 9 -4 -9 -9 -4 9 -4 z" fill="#38BDF8"/>
    <text x="544" y="33" fill="#CBD5E1">Claude</text>
  </g>
  <text x="640" y="600" text-anchor="middle" font-family="Helvetica Neue,Helvetica,Geneva,Arial,sans-serif" font-size="22" fill="#64748B">Python 3.12+ · MIT · uvx / npx reference bundles · repo-release-tools</text>
  <!-- version badge (top-right) -->
  <g transform="translate(1094,22)">
    <rect x="0" y="0" width="162" height="34" rx="17" fill="#0F766E" fill-opacity="0.9"/>
    <text x="81" y="23" text-anchor="middle" font-family="ui-monospace,SFMono-Regular,Menlo,monospace" font-size="17" font-weight="600" fill="#F0FDFA">v1.0.0</text>
  </g>
</svg>
